<svg xmlns="http://www.w3.org/2000/svg" viewBox="0 0 512 512" role="img" aria-labelledby="title">
  <title id="title">Heart Book</title>
  <defs>
    <linearGradient id="bg" x1="0" y1="0" x2="1" y2="1">
      <stop offset="0%" stop-color="#234d5e" />
      <stop offset="100%" stop-color="#1f3f4d" />
    </linearGradient>
    <linearGradient id="book" x1="0" y1="0" x2="1" y2="1">
      <stop offset="0%" stop-color="#f8f2e3" />
      <stop offset="100%" stop-color="#e7dcc5" />
    </linearGradient>
  </defs>

  <rect width="512" height="512" rx="112" fill="url(#bg)" />

  <path d="M144 308c36-20 72-30 112-30 42 0 76 11 112 30v96c-36-20-70-30-112-30-40 0-76 10-112 30z" fill="url(#book)" />
  <path d="M368 308c-36-20-72-30-112-30-42 0-76 11-112 30" fill="none" stroke="#d2c2a5" stroke-width="10" stroke-linecap="round" />
  <path d="M256 278v126" stroke="#cab89a" stroke-width="9" stroke-linecap="round" />

  <path d="M206 210c0-24 18-44 41-44 14 0 25 7 33 18 8-11 19-18 33-18 23 0 41 20 41 44 0 51-56 89-74 102-18-13-74-51-74-102z" fill="#f2c787" />
  <path d="M256 148v36" stroke="#f8dfb0" stroke-width="8" stroke-linecap="round" />
  <path d="M232 168l24 16 24-16" fill="none" stroke="#f8dfb0" stroke-width="8" stroke-linecap="round" stroke-linejoin="round" />
</svg>
